<?xml version="1.0" encoding="utf-8"?>
<!-- Generator: Adobe Illustrator 15.0.0, SVG Export Plug-In . SVG Version: 6.00 Build 0)  -->
<!DOCTYPE svg PUBLIC "-//W3C//DTD SVG 1.1//EN" "http://www.w3.org/Graphics/SVG/1.1/DTD/svg11.dtd">
<svg version="1.1" id="Layer_1" xmlns="http://www.w3.org/2000/svg" xmlns:xlink="http://www.w3.org/1999/xlink" x="0px" y="0px"
	 width="299.29px" height="46.109px" viewBox="0 0 299.29 46.109" enable-background="new 0 0 299.29 46.109" xml:space="preserve">
<g id="Layer_2">
	<g>
		<path fill="#111111" d="M38.579,9.763c-2.303,0.105-2.707,0.475-2.707,3.094v17.859c0,2.619,0.422,2.988,2.707,3.094v0.722
			c-1.336-0.07-3.568-0.105-5.66-0.105c-2.303,0-4.465,0.035-5.695,0.105V33.81c2.461-0.104,2.918-0.475,2.918-3.094V11.978
			l-8.666,22.605h-0.58l-9.721-23.222v17.263c0,3.955,0.316,4.869,3.498,5.186v0.722c-0.932-0.07-2.602-0.105-3.902-0.105
			c-1.125,0-2.373,0.035-3.129,0.105V33.81c2.303-0.315,2.707-1.266,2.707-4.746V12.856c0-2.619-0.422-2.987-2.707-3.094v-0.72
			c0.756,0.069,2.004,0.104,3.129,0.104c2.092,0,4.131-0.035,5.695-0.104l7.26,17.508L30.37,9.147h2.549
			c2.092,0,4.324-0.035,5.66-0.104V9.763L38.579,9.763z"/>
		<path fill="#111111" d="M54.114,17.022c1.055,1.09,1.283,2.531,1.283,5.045v9.791c0,1.16,0.193,1.601,0.773,1.601
			c0.51,0,0.914-0.299,1.318-0.615l0.369,0.615c-1.09,0.879-2.285,1.317-4.113,1.317c-2.637,0-3.445-1.371-3.463-2.918
			c-1.23,2.021-3.287,2.918-5.309,2.918c-2.689,0-4.553-1.477-4.553-4.096c0-2.602,1.723-4.061,5.063-5.291
			c2.654-1.002,4.729-1.688,4.729-3.234v-2.813c0-1.881-0.809-3.217-2.936-3.217c-0.861,0-1.916,0.246-2.566,0.879
			c1.283,0.438,2.127,1.371,2.127,2.83c0,1.494-1.16,2.584-2.936,2.584c-1.564,0-2.549-1.195-2.549-2.777
			c0-1.317,0.844-2.32,2.021-3.006c1.283-0.721,3.041-1.23,5.467-1.23C51.161,15.405,52.954,15.827,54.114,17.022z M50.211,23.632
			c-0.334,0.545-1.02,1.02-2.232,1.775c-1.266,0.932-2.443,2.108-2.443,4.271c0,1.986,0.967,2.795,2.25,2.795
			c0.879,0,1.67-0.387,2.426-1.459L50.211,23.632L50.211,23.632z"/>
		<path fill="#111111" d="M70.264,15.933v0.721H66.01v14.521c0,1.477,0.527,2.004,1.582,2.004c0.879,0,1.758-0.563,2.461-2.162
			l0.598,0.334c-0.791,2.146-2.268,3.691-4.922,3.691c-1.617,0-2.795-0.404-3.604-1.213c-1.037-1.056-1.301-2.515-1.301-5.027
			V16.653h-3.023v-0.721h3.023v-4.764c2.021-0.019,3.691-0.353,5.186-1.16v5.924L70.264,15.933L70.264,15.933z"/>
		<path fill="#111111" d="M78.469,18.745c1.195-2.443,3.357-3.341,5.889-3.341c2.057,0,3.234,0.563,3.973,1.406
			c0.791,0.914,1.125,2.232,1.125,4.676v9.703c0,2.004,0.633,2.584,2.303,2.584v0.756c-0.914-0.034-2.988-0.141-4.746-0.141
			c-1.846,0-3.797,0.105-4.676,0.141v-0.756c1.424,0,1.934-0.58,1.934-2.584V19.993c0-1.793-0.422-3.007-2.215-3.007
			c-1.986,0-3.586,1.724-3.586,4.166V31.19c0,2.004,0.527,2.584,1.951,2.584v0.756c-0.844-0.034-2.707-0.141-4.465-0.141
			c-1.846,0-4.008,0.105-4.957,0.141v-0.756c1.67,0,2.303-0.58,2.303-2.584V10.677c0-2.145-0.563-3.164-2.303-3.164V6.757
			c0.756,0.07,1.512,0.104,2.215,0.104c2.021,0,3.762-0.141,5.256-0.491v12.375H78.469z"/>
		<path fill="#111111" d="M108.224,29.187l0.65,0.246c-0.861,2.707-3.217,5.607-7.207,5.607c-4.852,0-8.297-3.06-8.297-9.633
			c0-6.681,3.691-10.003,8.807-10.003c4.201,0,6.768,2.355,6.768,7.998H98.873c-0.053,0.527-0.07,1.125-0.07,1.705
			c0,5.011,2.408,6.961,4.693,6.961C104.937,32.069,106.765,31.577,108.224,29.187z M98.767,22.718h5.643
			c0.07-3.516-0.686-6.539-2.443-6.539C100.349,16.179,99.066,18.06,98.767,22.718z"/>
		<path fill="#111111" d="M138.015,15.897v0.756c-0.914,0.229-1.775,0.914-2.479,3.095l-4.781,14.854
			c-0.387-0.035-0.791-0.053-1.178-0.053c-0.387,0-0.773,0.018-1.16,0.053l-4.887-13.358l-3.99,13.358
			c-0.387-0.035-0.773-0.053-1.16-0.053c-0.404,0-0.791,0.018-1.178,0.053l-5.695-15.926c-0.703-1.898-1.582-2.021-2.092-2.021
			v-0.756c1.529,0.158,3.111,0.229,5.115,0.229c1.477,0,3.252-0.105,4.693-0.229v0.756c-1.318,0-2.268,0.054-2.268,1.072
			c0,0.246,0.07,0.58,0.193,0.967l3.252,10.195l3.902-13.025h0.018c0.404,0.035,0.809,0.054,1.23,0.054
			c0.457,0,0.932-0.019,1.389-0.054l4.676,13.746l2.285-7.225c0.334-1.072,0.475-1.969,0.475-2.707c0-1.986-1.072-2.883-2.813-3.023
			v-0.756c1.107,0.105,2.725,0.142,3.691,0.142S137.382,16.003,138.015,15.897z"/>
		<path fill="#111111" d="M168.013,9.042v0.721c-1.037,0.404-2.32,1.582-3.287,4.271l-7.61,20.565
			c-0.388-0.018-0.826-0.035-1.248-0.035c-0.439,0-0.861,0.019-1.248,0.035l-9.177-22.535c-0.686-1.723-1.564-2.268-2.268-2.303
			v-0.72c1.441,0.069,3.498,0.104,5.484,0.104c2.214,0,4.289-0.035,5.466-0.104v0.721c-1.67,0.07-2.531,0.299-2.531,1.336
			c0,0.404,0.142,0.967,0.423,1.688l6.362,16.119l4.431-11.953c0.687-1.863,1.002-3.287,1.002-4.359c0-2.004-1.106-2.777-3.022-2.83
			V9.042c1.616,0.069,2.987,0.104,4.481,0.104C166.325,9.147,167.292,9.112,168.013,9.042z"/>
		<path fill="#111111" d="M179.627,17.022c1.055,1.09,1.283,2.531,1.283,5.045v9.791c0,1.16,0.192,1.601,0.772,1.601
			c0.51,0,0.914-0.299,1.317-0.615l0.369,0.615c-1.09,0.879-2.285,1.317-4.113,1.317c-2.637,0-3.444-1.371-3.463-2.918
			c-1.229,2.021-3.287,2.918-5.308,2.918c-2.688,0-4.553-1.477-4.553-4.096c0-2.602,1.724-4.061,5.063-5.291
			c2.653-1.002,4.728-1.688,4.728-3.234v-2.813c0-1.881-0.81-3.217-2.935-3.217c-0.861,0-1.916,0.246-2.566,0.879
			c1.283,0.438,2.127,1.371,2.127,2.83c0,1.494-1.16,2.584-2.936,2.584c-1.564,0-2.549-1.195-2.549-2.777
			c0-1.317,0.844-2.32,2.021-3.006c1.282-0.721,3.04-1.23,5.466-1.23C176.674,15.405,178.467,15.827,179.627,17.022z
			 M175.725,23.632c-0.334,0.545-1.02,1.02-2.232,1.775c-1.265,0.932-2.443,2.108-2.443,4.271c0,1.986,0.968,2.795,2.25,2.795
			c0.879,0,1.67-0.387,2.426-1.459V23.632L175.725,23.632z"/>
		<path fill="#111111" d="M199.874,18.728c0,1.775-1.107,3.023-2.795,3.023c-1.688,0-2.689-0.914-2.689-2.32
			c0-1.318,0.686-2.18,1.582-2.777c-0.141-0.053-0.299-0.088-0.475-0.088c-0.158,0-0.334,0.035-0.511,0.088
			c-1.916,0.316-3.271,2.707-3.271,4.642v9.526c0,2.32,1.107,2.953,3.375,2.953v0.757c-1.106-0.035-3.444-0.142-5.713-0.142
			c-1.969,0-4.166,0.105-5.149,0.142v-0.757c1.67,0,2.304-0.58,2.304-2.584V19.835c0-2.162-0.564-3.183-2.304-3.183v-0.756
			c0.756,0.07,1.513,0.123,2.231,0.123c2.004,0,3.744-0.158,5.256-0.51v3.357c0.861-1.935,2.603-3.464,4.869-3.464
			C198.924,15.405,199.874,17.11,199.874,18.728z"/>
		<path fill="#111111" d="M214.213,29.925c2.619,0,4.869,0.932,4.869,3.867c0,3.463-3.271,7.506-10.424,7.506
			c-5.433,0-7.98-1.389-7.98-3.111c0-2.285,3.533-2.145,5.449-3.463h-0.844c-1.371,0-4.025-0.475-4.025-3.34
			c0-2.039,1.16-3.445,4.588-5.063c-2.408-0.791-3.955-2.479-3.955-5.186c0-3.973,3.305-5.73,7.734-5.73
			c0.949,0,1.862,0.089,2.688,0.246c-0.035-0.598,0-1.194,0.123-1.774c0.229-1.881,1.267-3.322,3.41-3.322
			c1.528,0,2.618,0.844,2.618,2.197c0,1.213-1.055,2.092-2.461,2.092c-1.528,0-2.231-0.756-2.688-2.021
			c-0.246,0.423-0.422,1.037-0.526,1.828c-0.019,0.177-0.019,0.353-0.019,0.527c0,0.193,0,0.387,0.019,0.58
			c2.76,0.703,4.588,2.426,4.588,5.379c0,3.955-3.322,5.73-7.752,5.73c-1.125,0-2.181-0.105-3.111-0.353
			c-1.213,0.721-2.057,1.301-2.057,2.215c0,0.826,0.51,1.195,1.477,1.195L214.213,29.925L214.213,29.925z M215.075,36.218
			c0-0.967-0.439-1.494-2.074-1.494h-6.188c-0.845,0.81-1.229,2.074-1.229,2.848c0,2.058,1.774,3.111,4.043,3.111
			C212.525,40.683,215.075,39.048,215.075,36.218z M207.217,21.136c0,3.85,0.914,5.08,2.408,5.08s2.408-1.23,2.408-5.08
			s-0.914-5.08-2.408-5.08S207.217,17.286,207.217,21.136z"/>
		<path fill="#111111" d="M227.497,18.745c1.195-2.443,3.357-3.341,5.889-3.341c2.058,0,3.234,0.563,3.974,1.406
			c0.791,0.914,1.125,2.232,1.125,4.676v9.703c0,2.004,0.634,2.584,2.304,2.584v0.756c-0.914-0.034-2.988-0.141-4.746-0.141
			c-1.847,0-3.797,0.105-4.676,0.141v-0.756c1.424,0,1.934-0.58,1.934-2.584V19.993c0-1.793-0.422-3.007-2.215-3.007
			c-1.986,0-3.586,1.724-3.586,4.166V31.19c0,2.004,0.526,2.584,1.951,2.584v0.756c-0.845-0.034-2.707-0.141-4.466-0.141
			c-1.846,0-4.008,0.105-4.957,0.141v-0.756c1.67,0,2.304-0.58,2.304-2.584V10.677c0-2.145-0.563-3.164-2.304-3.164V6.757
			c0.757,0.07,1.513,0.104,2.216,0.104c2.021,0,3.762-0.141,5.256-0.491v12.375H227.497z"/>
		<path fill="#111111" d="M257.252,29.187l0.65,0.246c-0.861,2.707-3.217,5.607-7.207,5.607c-4.852,0-8.297-3.06-8.297-9.633
			c0-6.681,3.691-10.003,8.807-10.003c4.201,0,6.769,2.355,6.769,7.998h-10.072c-0.053,0.527-0.069,1.125-0.069,1.705
			c0,5.011,2.408,6.961,4.692,6.961C253.965,32.069,255.793,31.577,257.252,29.187z M247.795,22.718h5.644
			c0.069-3.516-0.687-6.539-2.442-6.539C249.377,16.179,248.095,18.06,247.795,22.718z"/>
		<path fill="#111111" d="M271.312,16.513c0.246,0.158,0.457,0.246,0.649,0.246c0.422,0,0.722-0.422,0.845-1.318h0.772
			c-0.123,1.371-0.158,3.129-0.158,6.328h-0.756c-0.369-2.653-1.547-5.572-4.623-5.572c-1.389,0-2.442,0.845-2.442,2.32
			c0,2.162,2.215,3.357,4.43,5.01c2.408,1.775,4.308,3.322,4.308,6.17c0,3.287-3.111,5.345-6.82,5.345
			c-1.441,0-2.566-0.316-3.375-0.756c-0.65-0.334-1.16-0.599-1.67-0.757c-0.053-0.018-0.105-0.034-0.158-0.034
			c-0.404,0-0.703,0.51-0.879,1.282h-0.756c0.105-1.547,0.141-3.551,0.141-7.188h0.773c0.439,3.902,1.828,6.627,4.852,6.627
			c1.248,0,2.531-0.721,2.531-2.566c0-2.108-1.564-3.287-3.639-4.903c-2.355-1.847-4.519-3.48-4.519-6.381
			c0-3.199,2.918-4.957,6.188-4.957C269.026,15.405,270.608,16.056,271.312,16.513z"/>
		<path fill="#111111" d="M291.663,29.187l0.65,0.246c-0.861,2.707-3.217,5.607-7.207,5.607c-4.852,0-8.297-3.06-8.297-9.633
			c0-6.681,3.691-10.003,8.807-10.003c4.201,0,6.768,2.355,6.768,7.998h-10.071c-0.054,0.527-0.069,1.125-0.069,1.705
			c0,5.011,2.407,6.961,4.692,6.961C288.375,32.069,290.204,31.577,291.663,29.187z M282.206,22.718h5.644
			c0.069-3.516-0.687-6.539-2.442-6.539C283.788,16.179,282.504,18.06,282.206,22.718z"/>
	</g>
</g>
<g id="Layer_1_1_">
</g>
</svg>
