<?xml version="1.0" encoding="utf-8"?>
<!-- Generator: Adobe Illustrator 15.0.0, SVG Export Plug-In . SVG Version: 6.00 Build 0)  -->
<!DOCTYPE svg PUBLIC "-//W3C//DTD SVG 1.1//EN" "http://www.w3.org/Graphics/SVG/1.1/DTD/svg11.dtd">
<svg version="1.1" xmlns="http://www.w3.org/2000/svg" xmlns:xlink="http://www.w3.org/1999/xlink" x="0px" y="0px"
	 width="299.29px" height="46.11px" viewBox="0 0 299.29 46.11" enable-background="new 0 0 299.29 46.11" xml:space="preserve">
<g id="Layer_2">
	<g>
		<path fill="#111111" d="M38.579,9.763c-2.303,0.105-2.707,0.475-2.707,3.094v17.859c0,2.619,0.422,2.988,2.707,3.094v0.721
			c-1.336-0.07-3.568-0.105-5.66-0.105c-2.303,0-4.465,0.035-5.695,0.105V33.81c2.461-0.105,2.918-0.475,2.918-3.094V11.978
			l-8.666,22.605h-0.58l-9.721-23.221v17.262c0,3.955,0.316,4.869,3.498,5.186v0.721c-0.932-0.07-2.602-0.105-3.902-0.105
			c-1.125,0-2.373,0.035-3.129,0.105V33.81c2.303-0.316,2.707-1.266,2.707-4.746V12.856c0-2.619-0.422-2.988-2.707-3.094V9.042
			c0.756,0.07,2.004,0.105,3.129,0.105c2.092,0,4.131-0.035,5.695-0.105l7.26,17.508L30.37,9.147h2.549
			c2.092,0,4.324-0.035,5.66-0.105V9.763z"/>
		<path fill="#111111" d="M54.114,17.022c1.055,1.09,1.283,2.531,1.283,5.045v9.791c0,1.16,0.193,1.6,0.773,1.6
			c0.51,0,0.914-0.299,1.318-0.615l0.369,0.615c-1.09,0.879-2.285,1.318-4.113,1.318c-2.637,0-3.445-1.371-3.463-2.918
			c-1.23,2.021-3.287,2.918-5.309,2.918c-2.689,0-4.553-1.477-4.553-4.096c0-2.602,1.723-4.061,5.063-5.291
			c2.654-1.002,4.729-1.688,4.729-3.234v-2.813c0-1.881-0.809-3.217-2.936-3.217c-0.861,0-1.916,0.246-2.566,0.879
			c1.283,0.439,2.127,1.371,2.127,2.83c0,1.494-1.16,2.584-2.936,2.584c-1.564,0-2.549-1.195-2.549-2.777
			c0-1.318,0.844-2.32,2.021-3.006c1.283-0.721,3.041-1.23,5.467-1.23C51.161,15.405,52.954,15.827,54.114,17.022z M50.211,23.632
			c-0.334,0.545-1.02,1.02-2.232,1.775c-1.266,0.932-2.443,2.109-2.443,4.271c0,1.986,0.967,2.795,2.25,2.795
			c0.879,0,1.67-0.387,2.426-1.459V23.632z"/>
		<path fill="#111111" d="M70.264,15.933v0.721H66.01v14.52c0,1.477,0.527,2.004,1.582,2.004c0.879,0,1.758-0.563,2.461-2.162
			l0.598,0.334c-0.791,2.145-2.268,3.691-4.922,3.691c-1.617,0-2.795-0.404-3.604-1.213c-1.037-1.055-1.301-2.514-1.301-5.027
			V16.653h-3.023v-0.721h3.023v-4.764c2.021-0.018,3.691-0.352,5.186-1.16v5.924H70.264z"/>
		<path fill="#111111" d="M78.469,18.745c1.195-2.443,3.357-3.34,5.889-3.34c2.057,0,3.234,0.563,3.973,1.406
			c0.791,0.914,1.125,2.232,1.125,4.676v9.703c0,2.004,0.633,2.584,2.303,2.584v0.756c-0.914-0.035-2.988-0.141-4.746-0.141
			c-1.846,0-3.797,0.105-4.676,0.141v-0.756c1.424,0,1.934-0.58,1.934-2.584V19.993c0-1.793-0.422-3.006-2.215-3.006
			c-1.986,0-3.586,1.723-3.586,4.166V31.19c0,2.004,0.527,2.584,1.951,2.584v0.756c-0.844-0.035-2.707-0.141-4.465-0.141
			c-1.846,0-4.008,0.105-4.957,0.141v-0.756c1.67,0,2.303-0.58,2.303-2.584V10.677c0-2.145-0.563-3.164-2.303-3.164V6.757
			c0.756,0.07,1.512,0.105,2.215,0.105c2.021,0,3.762-0.141,5.256-0.492V18.745z"/>
		<path fill="#111111" d="M108.224,29.187l0.65,0.246c-0.861,2.707-3.217,5.607-7.207,5.607c-4.852,0-8.297-3.059-8.297-9.633
			c0-6.68,3.691-10.002,8.807-10.002c4.201,0,6.768,2.355,6.768,7.998H98.873c-0.053,0.527-0.07,1.125-0.07,1.705
			c0,5.01,2.408,6.961,4.693,6.961C104.937,32.069,106.765,31.577,108.224,29.187z M98.767,22.718h5.643
			c0.07-3.516-0.686-6.539-2.443-6.539C100.349,16.179,99.066,18.06,98.767,22.718z"/>
		<path fill="#111111" d="M138.015,15.897v0.756c-0.914,0.229-1.775,0.914-2.479,3.094l-4.781,14.854
			c-0.387-0.035-0.791-0.053-1.178-0.053s-0.773,0.018-1.16,0.053l-4.887-13.359l-3.99,13.359c-0.387-0.035-0.773-0.053-1.16-0.053
			c-0.404,0-0.791,0.018-1.178,0.053l-5.695-15.926c-0.703-1.898-1.582-2.021-2.092-2.021v-0.756
			c1.529,0.158,3.111,0.229,5.115,0.229c1.477,0,3.252-0.105,4.693-0.229v0.756c-1.318,0-2.268,0.053-2.268,1.072
			c0,0.246,0.07,0.58,0.193,0.967l3.252,10.195l3.902-13.025h0.018c0.404,0.035,0.809,0.053,1.23,0.053
			c0.457,0,0.932-0.018,1.389-0.053l4.676,13.746l2.285-7.225c0.334-1.072,0.475-1.969,0.475-2.707c0-1.986-1.072-2.883-2.813-3.023
			v-0.756c1.107,0.105,2.725,0.141,3.691,0.141S137.382,16.003,138.015,15.897z"/>
		<path fill="#111111" d="M168.013,9.042v0.721c-1.037,0.404-2.32,1.582-3.287,4.271l-7.611,20.566
			c-0.387-0.018-0.826-0.035-1.248-0.035c-0.439,0-0.861,0.018-1.248,0.035l-9.176-22.535c-0.686-1.723-1.564-2.268-2.268-2.303
			V9.042c1.441,0.07,3.498,0.105,5.484,0.105c2.215,0,4.289-0.035,5.467-0.105v0.721c-1.67,0.07-2.531,0.299-2.531,1.336
			c0,0.404,0.141,0.967,0.422,1.688l6.363,16.119l4.43-11.953c0.686-1.863,1.002-3.287,1.002-4.359c0-2.004-1.107-2.777-3.023-2.83
			V9.042c1.617,0.07,2.988,0.105,4.482,0.105C166.325,9.147,167.292,9.112,168.013,9.042z"/>
		<path fill="#111111" d="M179.627,17.022c1.055,1.09,1.283,2.531,1.283,5.045v9.791c0,1.16,0.193,1.6,0.773,1.6
			c0.51,0,0.914-0.299,1.318-0.615l0.369,0.615c-1.09,0.879-2.285,1.318-4.113,1.318c-2.637,0-3.445-1.371-3.463-2.918
			c-1.23,2.021-3.287,2.918-5.308,2.918c-2.689,0-4.553-1.477-4.553-4.096c0-2.602,1.723-4.061,5.063-5.291
			c2.654-1.002,4.728-1.688,4.728-3.234v-2.813c0-1.881-0.809-3.217-2.935-3.217c-0.861,0-1.916,0.246-2.566,0.879
			c1.283,0.439,2.127,1.371,2.127,2.83c0,1.494-1.16,2.584-2.936,2.584c-1.564,0-2.549-1.195-2.549-2.777
			c0-1.318,0.844-2.32,2.021-3.006c1.283-0.721,3.041-1.23,5.466-1.23C176.674,15.405,178.467,15.827,179.627,17.022z
			 M175.725,23.632c-0.334,0.545-1.02,1.02-2.232,1.775c-1.265,0.932-2.443,2.109-2.443,4.271c0,1.986,0.967,2.795,2.25,2.795
			c0.878,0,1.669-0.387,2.425-1.459V23.632z"/>
		<path fill="#111111" d="M199.873,18.728c0,1.775-1.107,3.023-2.795,3.023s-2.689-0.914-2.689-2.32c0-1.318,0.686-2.18,1.582-2.777
			c-0.141-0.053-0.299-0.088-0.475-0.088c-0.158,0-0.334,0.035-0.51,0.088c-1.916,0.316-3.27,2.707-3.27,4.641v9.527
			c0,2.32,1.107,2.953,3.375,2.953v0.756c-1.107-0.035-3.445-0.141-5.713-0.141c-1.969,0-4.166,0.105-5.15,0.141v-0.756
			c1.67,0,2.303-0.58,2.303-2.584V19.835c0-2.162-0.563-3.182-2.303-3.182v-0.756c0.756,0.07,1.512,0.123,2.232,0.123
			c2.004,0,3.744-0.158,5.256-0.51v3.357c0.861-1.934,2.602-3.463,4.869-3.463C198.924,15.405,199.873,17.11,199.873,18.728z"/>
		<path fill="#111111" d="M214.213,29.925c2.619,0,4.869,0.932,4.869,3.867c0,3.463-3.27,7.506-10.424,7.506
			c-5.432,0-7.98-1.389-7.98-3.111c0-2.285,3.533-2.145,5.449-3.463h-0.844c-1.371,0-4.025-0.475-4.025-3.34
			c0-2.039,1.16-3.445,4.588-5.063c-2.408-0.791-3.955-2.479-3.955-5.186c0-3.973,3.305-5.73,7.734-5.73
			c0.949,0,1.863,0.088,2.689,0.246c-0.035-0.598,0-1.195,0.123-1.775c0.229-1.881,1.266-3.322,3.41-3.322
			c1.529,0,2.619,0.844,2.619,2.197c0,1.213-1.055,2.092-2.461,2.092c-1.529,0-2.232-0.756-2.689-2.021
			c-0.246,0.422-0.422,1.037-0.527,1.828c-0.018,0.176-0.018,0.352-0.018,0.527c0,0.193,0,0.387,0.018,0.58
			c2.76,0.703,4.588,2.426,4.588,5.379c0,3.955-3.322,5.73-7.752,5.73c-1.125,0-2.18-0.105-3.111-0.352
			c-1.213,0.721-2.057,1.301-2.057,2.215c0,0.826,0.51,1.195,1.477,1.195H214.213z M215.074,36.218c0-0.967-0.439-1.494-2.074-1.494
			h-6.188c-0.844,0.809-1.23,2.074-1.23,2.848c0,2.057,1.775,3.111,4.043,3.111C212.525,40.683,215.074,39.048,215.074,36.218z
			 M207.217,21.136c0,3.85,0.914,5.08,2.408,5.08s2.408-1.23,2.408-5.08s-0.914-5.08-2.408-5.08S207.217,17.286,207.217,21.136z"/>
		<path fill="#111111" d="M227.497,18.745c1.195-2.443,3.357-3.34,5.889-3.34c2.057,0,3.234,0.563,3.973,1.406
			c0.791,0.914,1.125,2.232,1.125,4.676v9.703c0,2.004,0.633,2.584,2.303,2.584v0.756c-0.914-0.035-2.988-0.141-4.746-0.141
			c-1.846,0-3.797,0.105-4.676,0.141v-0.756c1.424,0,1.934-0.58,1.934-2.584V19.993c0-1.793-0.422-3.006-2.215-3.006
			c-1.986,0-3.586,1.723-3.586,4.166V31.19c0,2.004,0.527,2.584,1.951,2.584v0.756c-0.844-0.035-2.707-0.141-4.465-0.141
			c-1.846,0-4.008,0.105-4.957,0.141v-0.756c1.67,0,2.303-0.58,2.303-2.584V10.677c0-2.145-0.563-3.164-2.303-3.164V6.757
			c0.756,0.07,1.512,0.105,2.215,0.105c2.021,0,3.762-0.141,5.256-0.492V18.745z"/>
		<path fill="#111111" d="M257.253,29.187l0.65,0.246c-0.861,2.707-3.217,5.607-7.207,5.607c-4.852,0-8.297-3.059-8.297-9.633
			c0-6.68,3.691-10.002,8.807-10.002c4.201,0,6.768,2.355,6.768,7.998h-10.072c-0.053,0.527-0.07,1.125-0.07,1.705
			c0,5.01,2.408,6.961,4.693,6.961C253.966,32.069,255.794,31.577,257.253,29.187z M247.796,22.718h5.643
			c0.07-3.516-0.686-6.539-2.443-6.539C249.378,16.179,248.095,18.06,247.796,22.718z"/>
		<path fill="#111111" d="M271.312,16.513c0.246,0.158,0.457,0.246,0.65,0.246c0.422,0,0.721-0.422,0.844-1.318h0.773
			c-0.123,1.371-0.158,3.129-0.158,6.328h-0.756c-0.369-2.654-1.547-5.572-4.623-5.572c-1.389,0-2.443,0.844-2.443,2.32
			c0,2.162,2.215,3.357,4.43,5.01c2.408,1.775,4.307,3.322,4.307,6.17c0,3.287-3.111,5.344-6.82,5.344
			c-1.441,0-2.566-0.316-3.375-0.756c-0.65-0.334-1.16-0.598-1.67-0.756c-0.053-0.018-0.105-0.035-0.158-0.035
			c-0.404,0-0.703,0.51-0.879,1.283h-0.756c0.105-1.547,0.141-3.551,0.141-7.189h0.773c0.439,3.902,1.828,6.627,4.852,6.627
			c1.248,0,2.531-0.721,2.531-2.566c0-2.109-1.564-3.287-3.639-4.904c-2.355-1.846-4.518-3.48-4.518-6.381
			c0-3.199,2.918-4.957,6.188-4.957C269.026,15.405,270.608,16.056,271.312,16.513z"/>
		<path fill="#111111" d="M291.663,29.187l0.65,0.246c-0.861,2.707-3.217,5.607-7.207,5.607c-4.852,0-8.297-3.059-8.297-9.633
			c0-6.68,3.691-10.002,8.807-10.002c4.201,0,6.768,2.355,6.768,7.998h-10.072c-0.053,0.527-0.07,1.125-0.07,1.705
			c0,5.01,2.408,6.961,4.693,6.961C288.376,32.069,290.204,31.577,291.663,29.187z M282.206,22.718h5.643
			c0.07-3.516-0.686-6.539-2.443-6.539C283.788,16.179,282.505,18.06,282.206,22.718z"/>
	</g>
</g>
<g id="Layer_1">
</g>
</svg>
